<mxfile host="app.diagrams.net" modified="2023-06-29T12:31:52.618Z" agent="Mozilla/5.0 (Windows NT 10.0; Win64; x64) AppleWebKit/537.36 (KHTML, like Gecko) Chrome/114.0.0.0 Safari/537.36" etag="3UG7v6z_3_m2tClIUhQW" version="21.5.1" type="google">
  <diagram name="Page-1" id="d0AC3dYzAiTQ7TLsGZpV">
    <mxGraphModel grid="1" page="1" gridSize="10" guides="1" tooltips="1" connect="1" arrows="1" fold="1" pageScale="1" pageWidth="827" pageHeight="1169" math="0" shadow="0">
      <root>
        <mxCell id="0" />
        <mxCell id="1" parent="0" />
        <mxCell id="NwPOSqZmB79cVId4hyT0-1" value="" style="rounded=1;whiteSpace=wrap;html=1;fillColor=#0050ef;fontColor=#ffffff;strokeColor=#001DBC;" vertex="1" parent="1">
          <mxGeometry x="315" y="80" width="250" height="140" as="geometry" />
        </mxCell>
        <mxCell id="NwPOSqZmB79cVId4hyT0-2" value="" style="ellipse;whiteSpace=wrap;html=1;aspect=fixed;fillColor=#0050ef;fontColor=#ffffff;strokeColor=#001DBC;" vertex="1" parent="1">
          <mxGeometry x="390" y="-10" width="105" height="105" as="geometry" />
        </mxCell>
        <mxCell id="NwPOSqZmB79cVId4hyT0-3" value="&lt;font style=&quot;font-size: 13px;&quot; color=&quot;#ffffff&quot;&gt;A customer who will have to create a personal account.&lt;/font&gt;" style="text;html=1;strokeColor=none;fillColor=none;align=center;verticalAlign=middle;whiteSpace=wrap;rounded=0;" vertex="1" parent="1">
          <mxGeometry x="352.5" y="150" width="180" height="30" as="geometry" />
        </mxCell>
        <mxCell id="NwPOSqZmB79cVId4hyT0-4" value="&lt;font color=&quot;#ffffff&quot; style=&quot;font-size: 14px;&quot;&gt;[Person]&lt;/font&gt;" style="text;html=1;strokeColor=none;fillColor=none;align=center;verticalAlign=middle;whiteSpace=wrap;rounded=0;" vertex="1" parent="1">
          <mxGeometry x="410" y="120" width="65" height="30" as="geometry" />
        </mxCell>
        <mxCell id="NwPOSqZmB79cVId4hyT0-5" value="&lt;font color=&quot;#ffffff&quot; style=&quot;font-size: 24px;&quot;&gt;User&lt;/font&gt;" style="text;html=1;strokeColor=none;fillColor=none;align=center;verticalAlign=middle;whiteSpace=wrap;rounded=0;" vertex="1" parent="1">
          <mxGeometry x="410" y="95" width="60" height="30" as="geometry" />
        </mxCell>
        <mxCell id="NwPOSqZmB79cVId4hyT0-6" value="" style="endArrow=classic;html=1;rounded=0;exitX=0.436;exitY=0.993;exitDx=0;exitDy=0;exitPerimeter=0;" edge="1" parent="1" source="NwPOSqZmB79cVId4hyT0-1">
          <mxGeometry relative="1" as="geometry">
            <mxPoint x="425" y="310" as="sourcePoint" />
            <mxPoint x="424" y="300" as="targetPoint" />
          </mxGeometry>
        </mxCell>
        <mxCell id="NwPOSqZmB79cVId4hyT0-8" value="" style="rounded=0;whiteSpace=wrap;html=1;fillColor=#1ba1e2;strokeColor=#006EAF;fontColor=#ffffff;" vertex="1" parent="1">
          <mxGeometry x="90" y="340" width="240" height="140" as="geometry" />
        </mxCell>
        <mxCell id="NwPOSqZmB79cVId4hyT0-9" value="&lt;font style=&quot;font-size: 24px;&quot; color=&quot;#ffffff&quot;&gt;Web Application&lt;br&gt;&lt;/font&gt;" style="text;html=1;strokeColor=none;fillColor=none;align=center;verticalAlign=middle;whiteSpace=wrap;rounded=0;" vertex="1" parent="1">
          <mxGeometry x="115" y="350" width="200" height="30" as="geometry" />
        </mxCell>
        <mxCell id="NwPOSqZmB79cVId4hyT0-13" value="&lt;font style=&quot;font-size: 14px;&quot; color=&quot;#ffffff&quot;&gt;Delivers the dynamic content of the app&lt;/font&gt;" style="text;html=1;strokeColor=none;fillColor=none;align=center;verticalAlign=middle;whiteSpace=wrap;rounded=0;" vertex="1" parent="1">
          <mxGeometry x="110" y="410" width="200" height="30" as="geometry" />
        </mxCell>
        <mxCell id="NwPOSqZmB79cVId4hyT0-14" value="" style="endArrow=classic;html=1;rounded=0;exitX=1.004;exitY=0.443;exitDx=0;exitDy=0;exitPerimeter=0;entryX=0;entryY=0.25;entryDx=0;entryDy=0;" edge="1" parent="1" source="NwPOSqZmB79cVId4hyT0-8" target="NwPOSqZmB79cVId4hyT0-16">
          <mxGeometry relative="1" as="geometry">
            <mxPoint x="546" y="349.5" as="sourcePoint" />
            <mxPoint x="480" y="400" as="targetPoint" />
          </mxGeometry>
        </mxCell>
        <mxCell id="NwPOSqZmB79cVId4hyT0-15" value="Uses&lt;br&gt;" style="edgeLabel;resizable=0;html=1;align=center;verticalAlign=middle;" connectable="0" vertex="1" parent="NwPOSqZmB79cVId4hyT0-14">
          <mxGeometry relative="1" as="geometry" />
        </mxCell>
        <mxCell id="NwPOSqZmB79cVId4hyT0-16" value="" style="rounded=0;whiteSpace=wrap;html=1;fillColor=#1ba1e2;fontColor=#ffffff;strokeColor=#006EAF;" vertex="1" parent="1">
          <mxGeometry x="480" y="590" width="250" height="130" as="geometry" />
        </mxCell>
        <mxCell id="NwPOSqZmB79cVId4hyT0-18" value="&lt;font color=&quot;#ffffff&quot;&gt;Permite utilizatorului sa intre in cont si sa joace/ creeze un joc&lt;/font&gt;" style="text;html=1;strokeColor=none;fillColor=none;align=center;verticalAlign=middle;whiteSpace=wrap;rounded=0;" vertex="1" parent="1">
          <mxGeometry x="535" y="400" width="140" height="40" as="geometry" />
        </mxCell>
        <mxCell id="NwPOSqZmB79cVId4hyT0-19" value="&lt;font color=&quot;#ffffff&quot; style=&quot;font-size: 14px;&quot;&gt;[Sistem software]&lt;/font&gt;" style="text;html=1;strokeColor=none;fillColor=none;align=center;verticalAlign=middle;whiteSpace=wrap;rounded=0;" vertex="1" parent="1">
          <mxGeometry x="151.5" y="370" width="117" height="30" as="geometry" />
        </mxCell>
        <mxCell id="NwPOSqZmB79cVId4hyT0-21" value="" style="endArrow=classic;html=1;rounded=0;exitX=0;exitY=0.5;exitDx=0;exitDy=0;entryX=1;entryY=0.5;entryDx=0;entryDy=0;entryPerimeter=0;" edge="1" parent="1" source="NwPOSqZmB79cVId4hyT0-16" target="NwPOSqZmB79cVId4hyT0-23">
          <mxGeometry relative="1" as="geometry">
            <mxPoint x="410" y="640" as="sourcePoint" />
            <mxPoint x="410" y="760" as="targetPoint" />
          </mxGeometry>
        </mxCell>
        <mxCell id="NwPOSqZmB79cVId4hyT0-23" value="" style="shape=cylinder3;whiteSpace=wrap;html=1;boundedLbl=1;backgroundOutline=1;size=15;fillColor=#647687;strokeColor=#314354;fontColor=#ffffff;" vertex="1" parent="1">
          <mxGeometry x="130" y="600" width="215" height="120" as="geometry" />
        </mxCell>
        <mxCell id="NwPOSqZmB79cVId4hyT0-24" value="&lt;font color=&quot;#ffffff&quot; style=&quot;font-size: 15px;&quot;&gt;Database MySQL&lt;/font&gt;" style="text;html=1;strokeColor=none;fillColor=none;align=center;verticalAlign=middle;whiteSpace=wrap;rounded=0;" vertex="1" parent="1">
          <mxGeometry x="155.88" y="600" width="163.25" height="30" as="geometry" />
        </mxCell>
        <mxCell id="NwPOSqZmB79cVId4hyT0-25" value="&lt;font color=&quot;#ffffff&quot;&gt;It stores information about the user, their score and the games created by them&lt;/font&gt;" style="text;html=1;strokeColor=none;fillColor=none;align=center;verticalAlign=middle;whiteSpace=wrap;rounded=0;" vertex="1" parent="1">
          <mxGeometry x="155.88" y="650" width="169.06" height="30" as="geometry" />
        </mxCell>
        <mxCell id="NwPOSqZmB79cVId4hyT0-28" value="" style="endArrow=none;dashed=1;html=1;dashPattern=1 3;strokeWidth=2;rounded=0;" edge="1" parent="1" source="NwPOSqZmB79cVId4hyT0-20">
          <mxGeometry width="50" height="50" relative="1" as="geometry">
            <mxPoint x="63" y="300" as="sourcePoint" />
            <mxPoint x="763" y="300" as="targetPoint" />
          </mxGeometry>
        </mxCell>
        <mxCell id="NwPOSqZmB79cVId4hyT0-29" value="" style="endArrow=none;dashed=1;html=1;dashPattern=1 3;strokeWidth=2;rounded=0;" edge="1" parent="1">
          <mxGeometry width="50" height="50" relative="1" as="geometry">
            <mxPoint x="60" y="800" as="sourcePoint" />
            <mxPoint x="60" y="300" as="targetPoint" />
          </mxGeometry>
        </mxCell>
        <mxCell id="NwPOSqZmB79cVId4hyT0-30" value="" style="endArrow=none;dashed=1;html=1;dashPattern=1 3;strokeWidth=2;rounded=0;" edge="1" parent="1">
          <mxGeometry width="50" height="50" relative="1" as="geometry">
            <mxPoint x="60" y="800" as="sourcePoint" />
            <mxPoint x="760" y="800" as="targetPoint" />
          </mxGeometry>
        </mxCell>
        <mxCell id="NwPOSqZmB79cVId4hyT0-31" value="" style="endArrow=none;dashed=1;html=1;dashPattern=1 3;strokeWidth=2;rounded=0;" edge="1" parent="1">
          <mxGeometry width="50" height="50" relative="1" as="geometry">
            <mxPoint x="760" y="800" as="sourcePoint" />
            <mxPoint x="760" y="300" as="targetPoint" />
          </mxGeometry>
        </mxCell>
        <mxCell id="-tN8XjPuq4WNOMzgZJAV-1" value="" style="endArrow=none;dashed=1;html=1;dashPattern=1 3;strokeWidth=2;rounded=0;entryX=1.012;entryY=0.69;entryDx=0;entryDy=0;entryPerimeter=0;" edge="1" parent="1" target="NwPOSqZmB79cVId4hyT0-20">
          <mxGeometry width="50" height="50" relative="1" as="geometry">
            <mxPoint x="63" y="300" as="sourcePoint" />
            <mxPoint x="763" y="300" as="targetPoint" />
          </mxGeometry>
        </mxCell>
        <mxCell id="NwPOSqZmB79cVId4hyT0-20" value="&lt;h1 style=&quot;border-color: var(--border-color); text-align: left;&quot;&gt;&lt;font color=&quot;#ffffff&quot; style=&quot;border-color: var(--border-color); font-size: 18px;&quot;&gt;&lt;span style=&quot;white-space: pre;&quot;&gt;&amp;nbsp;&amp;nbsp;&amp;nbsp;&amp;nbsp;&lt;/span&gt;Website&lt;/font&gt;&lt;/h1&gt;&lt;h1 style=&quot;border-color: var(--border-color); text-align: left;&quot;&gt;&lt;br&gt;&lt;/h1&gt;" style="text;html=1;strokeColor=none;fillColor=none;align=center;verticalAlign=middle;whiteSpace=wrap;rounded=0;" vertex="1" parent="1">
          <mxGeometry x="580" y="230" width="169" height="100" as="geometry" />
        </mxCell>
        <mxCell id="iewd0vF_rbcK06eyXaV9-1" value="" style="rounded=0;whiteSpace=wrap;html=1;fillColor=#1ba1e2;fontColor=#ffffff;strokeColor=#006EAF;" vertex="1" parent="1">
          <mxGeometry x="480" y="340" width="250" height="140" as="geometry" />
        </mxCell>
        <mxCell id="iewd0vF_rbcK06eyXaV9-3" value="&lt;font style=&quot;&quot; color=&quot;#ffffff&quot;&gt;&lt;font style=&quot;font-size: 22px;&quot;&gt;Mobile Web Application&lt;/font&gt;&lt;br&gt;&lt;/font&gt;" style="text;html=1;strokeColor=none;fillColor=none;align=center;verticalAlign=middle;whiteSpace=wrap;rounded=0;" vertex="1" parent="1">
          <mxGeometry x="480" y="350" width="254" height="30" as="geometry" />
        </mxCell>
        <mxCell id="iewd0vF_rbcK06eyXaV9-4" value="&lt;font color=&quot;#ffffff&quot;&gt;&lt;span style=&quot;font-size: 14px;&quot;&gt;[Software System]&lt;/span&gt;&lt;/font&gt;" style="text;html=1;strokeColor=none;fillColor=none;align=center;verticalAlign=middle;whiteSpace=wrap;rounded=0;" vertex="1" parent="1">
          <mxGeometry x="546.5" y="370" width="117" height="30" as="geometry" />
        </mxCell>
        <mxCell id="iewd0vF_rbcK06eyXaV9-6" value="&lt;font color=&quot;#ffffff&quot; style=&quot;font-size: 14px;&quot;&gt;Provides full functionality for the app on mobile devices&lt;/font&gt;" style="text;html=1;strokeColor=none;fillColor=none;align=center;verticalAlign=middle;whiteSpace=wrap;rounded=0;" vertex="1" parent="1">
          <mxGeometry x="505" y="410" width="200" height="30" as="geometry" />
        </mxCell>
        <mxCell id="iewd0vF_rbcK06eyXaV9-7" value="" style="endArrow=classic;html=1;rounded=0;exitX=0.5;exitY=1;exitDx=0;exitDy=0;entryX=0.5;entryY=0;entryDx=0;entryDy=0;" edge="1" parent="1" source="iewd0vF_rbcK06eyXaV9-1" target="NwPOSqZmB79cVId4hyT0-16">
          <mxGeometry relative="1" as="geometry">
            <mxPoint x="341" y="412" as="sourcePoint" />
            <mxPoint x="490" y="670" as="targetPoint" />
          </mxGeometry>
        </mxCell>
        <mxCell id="iewd0vF_rbcK06eyXaV9-8" value="Uses&lt;br&gt;" style="edgeLabel;resizable=0;html=1;align=center;verticalAlign=middle;" connectable="0" vertex="1" parent="iewd0vF_rbcK06eyXaV9-7">
          <mxGeometry relative="1" as="geometry" />
        </mxCell>
        <mxCell id="iewd0vF_rbcK06eyXaV9-14" value="&lt;font style=&quot;&quot; color=&quot;#ffffff&quot;&gt;&lt;font style=&quot;font-size: 22px;&quot;&gt;API Application&lt;/font&gt;&lt;br&gt;&lt;/font&gt;" style="text;html=1;strokeColor=none;fillColor=none;align=center;verticalAlign=middle;whiteSpace=wrap;rounded=0;" vertex="1" parent="1">
          <mxGeometry x="480" y="600" width="254" height="30" as="geometry" />
        </mxCell>
        <mxCell id="iewd0vF_rbcK06eyXaV9-15" value="&lt;font color=&quot;#ffffff&quot; style=&quot;font-size: 14px;&quot;&gt;[PHP and JavaScript]&lt;/font&gt;" style="text;html=1;strokeColor=none;fillColor=none;align=center;verticalAlign=middle;whiteSpace=wrap;rounded=0;" vertex="1" parent="1">
          <mxGeometry x="524.25" y="620" width="161.5" height="30" as="geometry" />
        </mxCell>
        <mxCell id="iewd0vF_rbcK06eyXaV9-16" value="&lt;font color=&quot;#ffffff&quot; style=&quot;font-size: 14px;&quot;&gt;Provides main functionality&lt;/font&gt;" style="text;html=1;strokeColor=none;fillColor=none;align=center;verticalAlign=middle;whiteSpace=wrap;rounded=0;" vertex="1" parent="1">
          <mxGeometry x="505" y="650" width="200" height="30" as="geometry" />
        </mxCell>
      </root>
    </mxGraphModel>
  </diagram>
</mxfile>
